# Blender v2.82 (sub 7) OBJ File: ''
# www.blender.org
mtllib root1.mtl
o Cylinder
v 0.083508 -0.040301 -0.083084
v -0.125000 0.000000 -0.100000
v 0.102258 0.025908 -0.049946
v -0.125000 0.078183 -0.062349
v 0.106889 0.042260 0.024514
v -0.125000 0.097493 0.022252
v 0.093914 -0.003558 0.084227
v -0.125000 0.043388 0.090097
v 0.073103 -0.077044 0.084227
v -0.125000 -0.043388 0.090097
v 0.060128 -0.122861 0.024514
v -0.125000 -0.097493 0.022252
v 0.064759 -0.106509 -0.049946
v -0.125000 -0.078183 -0.062349
v 0.376365 -0.148375 -0.066926
v 0.403021 -0.103348 -0.041728
v 0.409605 -0.092228 0.014893
v 0.391158 -0.123387 0.060299
v 0.361572 -0.173362 0.060299
v 0.343125 -0.204521 0.014893
v 0.349709 -0.193401 -0.041728
v 0.582751 -0.186224 -0.047567
v 0.575491 -0.149751 -0.029657
v 0.573698 -0.140742 0.010585
v 0.578722 -0.165983 0.042856
v 0.586779 -0.206466 0.042856
v 0.591803 -0.231706 0.010585
v 0.590010 -0.222698 -0.029657
v 0.763468 -0.150256 -0.028180
v 0.759571 -0.128571 -0.017570
v 0.758608 -0.123215 0.006271
v 0.761305 -0.138222 0.025389
v 0.765631 -0.162290 0.025389
v 0.768327 -0.177296 0.006271
v 0.767365 -0.171940 -0.017570
v 0.973589 -0.117090 -0.002114
v 0.972573 -0.111436 0.000652
v 0.972322 -0.110040 0.006868
v 0.973025 -0.113952 0.011853
v 0.974153 -0.120227 0.011853
v 0.974856 -0.124140 0.006868
v 0.974605 -0.122744 0.000652
vt 1.000000 0.500000
vt 1.000000 1.000000
vt 0.857143 1.000000
vt 0.857143 0.500000
vt 0.714286 1.000000
vt 0.714286 0.500000
vt 0.571429 1.000000
vt 0.571429 0.500000
vt 0.428571 1.000000
vt 0.428571 0.500000
vt 0.285714 1.000000
vt 0.285714 0.500000
vt 0.437640 0.399638
vt 0.250000 0.490000
vt 0.062360 0.399638
vt 0.016017 0.196595
vt 0.145868 0.033767
vt 0.354132 0.033767
vt 0.483983 0.196595
vt 0.142857 1.000000
vt 0.142857 0.500000
vt 0.000000 1.000000
vt 0.000000 0.500000
vt 0.571429 0.500000
vt 0.714286 0.500000
vt 0.142857 0.500000
vt 0.000000 0.500000
vt 0.000000 0.500000
vt 0.142857 0.500000
vt 0.285714 0.500000
vt 0.428571 0.500000
vt 0.857143 0.500000
vt 1.000000 0.500000
vt 0.285714 0.500000
vt 0.142857 0.500000
vt 0.285714 0.500000
vt 0.428571 0.500000
vt 0.571429 0.500000
vt 0.714286 0.500000
vt 0.857143 0.500000
vt 1.000000 0.500000
vt 0.428571 0.500000
vt 0.285714 0.500000
vt 0.428571 0.500000
vt 0.571429 0.500000
vt 0.714286 0.500000
vt 0.857143 0.500000
vt 0.000000 0.500000
vt 1.000000 0.500000
vt 0.750000 0.490000
vt 0.937640 0.399638
vt 0.983983 0.196595
vt 0.854132 0.033767
vt 0.645868 0.033767
vt 0.516017 0.196595
vt 0.562360 0.399638
vt 0.571429 0.500000
vt 0.714286 0.500000
vt 0.857143 0.500000
vt 1.000000 0.500000
vt 0.142857 0.500000
vt 0.000000 0.500000
vn 0.1494 0.4196 -0.8954
vn 0.2291 0.9484 -0.2193
vn 0.1785 0.7657 0.6180
vn 0.0275 -0.0036 0.9996
vn -0.1138 -0.7765 0.6198
vn -1.0000 0.0000 -0.0000
vn -0.1298 -0.9667 -0.2205
vn -0.0095 -0.4392 -0.8983
vn 0.3354 0.7095 0.6198
vn -0.0078 -0.4661 -0.8847
vn -0.2781 -0.9351 -0.2198
vn 0.0708 -0.0289 0.9971
vn -0.1063 -0.4274 -0.8978
vn 0.3902 0.8939 -0.2207
vn -0.2007 -0.7608 0.6171
vn 0.1938 0.3924 -0.8991
vn 0.2823 -0.9334 -0.2214
vn -0.0746 -0.8008 0.5943
vn 0.2356 0.7666 0.5973
vn 0.1690 0.4291 -0.8873
vn -0.1090 -0.9722 -0.2074
vn 0.0807 -0.0192 0.9966
vn 0.2699 0.9400 -0.2087
vn 0.1934 -0.7583 0.6225
vn 0.0927 0.0178 0.9955
vn -0.0971 0.9703 -0.2217
vn 0.1771 -0.4057 -0.8967
vn 0.2447 -0.7452 0.6204
vn -0.0595 0.7815 0.6210
vn 0.0082 0.4415 -0.8972
vn 0.9842 0.1769 0.0000
vn -0.0500 0.7822 0.6210
vn 0.0407 0.4450 -0.8946
vn 0.2436 -0.9441 -0.2219
vn 0.0625 0.0112 0.9980
vn -0.0594 0.9734 -0.2211
vn 0.1755 -0.4071 -0.8964
usemtl None
s off
f 1/1/1 2/2/1 4/3/1 3/4/1
f 3/4/2 4/3/2 6/5/2 5/6/2
f 5/6/3 6/5/3 8/7/3 7/8/3
f 7/8/4 8/7/4 10/9/4 9/10/4
f 9/10/5 10/9/5 12/11/5 11/12/5
f 4/13/6 2/14/6 14/15/6 12/16/6 10/17/6 8/18/6 6/19/6
f 11/12/7 12/11/7 14/20/7 13/21/7
f 13/21/8 14/20/8 2/22/8 1/23/8
f 5/6/9 7/8/9 18/24/9 17/25/9
f 21/26/10 15/27/10 22/28/10 28/29/10
f 11/12/11 13/21/11 21/26/11 20/30/11
f 7/8/12 9/10/12 19/31/12 18/24/12
f 13/21/13 1/23/13 15/27/13 21/26/13
f 3/4/14 5/6/14 17/25/14 16/32/14
f 9/10/15 11/12/15 20/30/15 19/31/15
f 1/1/16 3/4/16 16/32/16 15/33/16
f 27/34/17 28/29/17 35/35/17 34/36/17
f 19/31/18 20/30/18 27/34/18 26/37/18
f 17/25/19 18/24/19 25/38/19 24/39/19
f 15/33/20 16/32/20 23/40/20 22/41/20
f 20/30/21 21/26/21 28/29/21 27/34/21
f 18/24/22 19/31/22 26/37/22 25/38/22
f 16/32/23 17/25/23 24/39/23 23/40/23
f 33/42/24 34/36/24 41/43/24 40/44/24
f 25/38/25 26/37/25 33/42/25 32/45/25
f 23/40/26 24/39/26 31/46/26 30/47/26
f 28/29/27 22/28/27 29/48/27 35/35/27
f 26/37/28 27/34/28 34/36/28 33/42/28
f 24/39/29 25/38/29 32/45/29 31/46/29
f 22/41/30 23/40/30 30/47/30 29/49/30
f 36/50/31 37/51/31 38/52/31 39/53/31 40/54/31 41/55/31 42/56/31
f 31/46/32 32/45/32 39/57/32 38/58/32
f 29/49/33 30/47/33 37/59/33 36/60/33
f 34/36/34 35/35/34 42/61/34 41/43/34
f 32/45/35 33/42/35 40/44/35 39/57/35
f 30/47/36 31/46/36 38/58/36 37/59/36
f 35/35/37 29/48/37 36/62/37 42/61/37
